# xmcd
#
# Track frame offsets:
#	150
#	18428
#	30850
#	48682
#	62413
#	75099
#	88284
#	101019
#	114273
#	124950
#	139746
#	152433
#	167282
#	180011
#	195124
#	209752
#
# Disc length: 2936 seconds
#
# Revision: 2
# Processed by: cddbd v1.5.2PL0 Copyright (c) Steve Scherf et al.
# Submitted via: MusicManager 7.3.0.0 
#
DISCID=b80b7610
DTITLE=TR Dallas - This Story I Tell You Is True
DYEAR=2010
DGENRE=
TTITLE0=This Story I Tell You Is True
TTITLE1=Abnormal Being Normal
TTITLE2=I'm Gonna Hire A Wino
TTITLE3=The Hand That Rocks The Cradle
TTITLE4=I Am For Love
TTITLE5=December Day
TTITLE6=Still In Love With You
TTITLE7=Teaching McFadden To Dance
TTITLE8=It's Hard To Just Stop Loving One
TTITLE9=The Road By The River
TTITLE10=Monday Morning Secretary
TTITLE11=Those Brown Eyes
TTITLE12=The Tale Of The Mermaid
TTITLE13=The Land That I Love
TTITLE14=Heaven Holds All Of My Treasures
TTITLE15=Come On Westmeath
EXTD=
EXTT0=
EXTT1=
EXTT2=
EXTT3=
EXTT4=
EXTT5=
EXTT6=
EXTT7=
EXTT8=
EXTT9=
EXTT10=
EXTT11=
EXTT12=
EXTT13=
EXTT14=
EXTT15=
PLAYORDER=
